<svg version="1.1" id="Layer_1" xmlns="http://www.w3.org/2000/svg" xmlns:xlink="http://www.w3.org/1999/xlink" x="0px" y="0px"
	 width="100%" viewBox="0 0 182 183" enable-background="new 0 0 182 183" xml:space="preserve">
<path fill="#000000" opacity="1.000000" stroke="none" 
	d="
M183.000000,111.000000 
	C183.000000,135.261673 183.000000,159.523346 183.000000,184.000000 
	C157.979523,184.000000 132.958420,184.000000 107.137367,183.738617 
	C107.232269,182.930557 108.127121,182.383865 109.419006,181.905640 
	C118.008087,179.049942 126.260178,176.276917 134.338165,173.065872 
	C135.836136,172.470413 136.632355,170.109543 138.113922,168.747375 
	C139.676208,168.310196 140.877029,167.689102 142.362045,166.957611 
	C142.992371,166.341873 143.338516,165.836548 143.684647,165.331207 
	C143.469177,165.164688 143.253708,164.998154 143.038239,164.831635 
	C142.473206,165.323929 141.908173,165.816223 141.091980,166.505936 
	C139.841629,167.361282 138.842453,168.019226 137.645935,169.076416 
	C136.162308,169.381287 134.729752,168.867966 133.612640,169.258072 
	C123.668526,172.730606 113.780144,176.362793 103.446732,179.966736 
	C101.018448,180.057190 99.018761,180.128845 96.563141,180.129852 
	C92.737587,180.092209 89.367966,180.125183 85.789215,180.084290 
	C85.580093,180.010406 85.139885,179.955780 84.905212,179.595932 
	C76.391953,178.732224 68.205017,177.969391 60.616482,174.066269 
	C53.765980,170.542740 46.434162,167.844513 39.929184,163.795074 
	C34.840759,160.627411 30.693188,155.948380 26.072742,151.583008 
	C23.365555,147.464569 20.713196,143.703964 17.917046,139.628265 
	C16.193792,136.727295 14.101449,134.319366 13.130861,131.522217 
	C10.197916,123.069687 7.700412,114.466064 5.016477,105.476685 
	C4.659423,101.273308 4.112392,97.519974 4.014424,93.754944 
	C3.584958,77.250046 9.197761,62.242802 15.490376,47.096928 
	C14.109781,47.534943 12.490443,48.115929 12.046203,49.185146 
	C8.895244,56.769051 6.016107,64.465485 2.950371,72.085831 
	C2.638865,72.860115 1.665972,73.368317 1.000000,74.000000 
	C1.000000,49.739300 1.000000,25.478598 1.000000,1.000000 
	C25.353794,1.000000 49.708241,1.000000 74.891449,1.282075 
	C72.863281,2.694506 70.006348,3.824862 65.619583,5.560500 
	C70.022026,6.142505 73.023621,6.978293 75.981483,6.844799 
	C83.647408,6.498819 91.294060,5.725990 99.077637,5.383950 
	C100.787743,5.471676 102.368614,5.299006 104.151474,5.459309 
	C118.297478,8.073235 131.006241,13.468306 142.957916,21.310150 
	C143.381592,21.740332 143.691055,21.920261 143.999664,22.050259 
	C143.998810,22.000326 143.898941,22.002121 143.985626,22.261944 
	C144.364609,22.726830 144.656891,22.931892 145.059601,23.411917 
	C145.737717,23.802402 146.305450,23.917929 146.990845,24.310217 
	C147.723877,25.080261 148.339218,25.573544 148.968658,26.037922 
	C148.982758,26.009016 148.918686,26.003265 149.007782,26.260935 
	C149.397583,26.705975 149.698257,26.893345 149.998840,27.041199 
	C149.998718,27.001684 149.919678,27.001993 150.007629,27.259478 
	C150.391190,27.712118 150.686829,27.907272 151.114349,28.421309 
	C154.482651,31.870665 157.719040,35.001141 161.095505,38.445648 
	C174.224884,57.187012 181.342072,77.271973 179.068207,100.180695 
	C178.044296,110.496361 175.822113,120.379089 171.141876,129.694214 
	C170.245911,131.477448 170.253632,133.714722 169.844437,135.742523 
	C170.321671,135.903687 170.798889,136.064865 171.276123,136.226028 
	C172.170990,135.149643 173.448059,134.211945 173.897308,132.973862 
	C176.396133,126.087219 178.662704,119.116524 181.119919,112.214165 
	C181.318283,111.656967 182.353607,111.397705 183.000000,111.000000 
M15.997108,81.995453 
	C15.997108,81.995453 15.996531,81.927879 15.461810,82.067520 
	C15.287462,82.376640 15.113115,82.685753 15.000294,82.998398 
	C15.000294,82.998398 14.983720,82.939041 14.412468,83.152428 
	C14.337112,83.530182 14.261757,83.907944 14.039917,84.531647 
	C14.039917,84.531647 14.023106,84.817429 13.526957,85.024345 
	C13.403725,85.327370 13.280493,85.630394 13.029414,86.860878 
	C13.606958,92.287239 10.986722,98.338364 16.154612,103.580841 
	C17.764336,104.413124 19.374060,105.245399 20.995506,106.005219 
	C20.995506,106.005219 20.923014,105.993698 21.069727,106.530853 
	C21.380552,106.708565 21.691378,106.886269 22.000067,106.997978 
	C22.000067,106.997978 21.935045,107.009483 22.156902,107.569740 
	C22.529222,107.653450 22.901545,107.737152 23.501013,107.959099 
	C23.501013,107.959099 23.766909,107.961121 24.026609,108.487862 
	C24.351410,108.680336 24.676212,108.872803 24.997066,108.997627 
	C24.997066,108.997627 24.930054,109.007675 25.067993,109.539970 
	C25.376150,109.711479 25.684307,109.882980 26.002619,109.997925 
	C26.002619,109.997925 25.947475,110.014114 26.161972,110.576485 
	C26.534504,110.661705 26.907038,110.746925 27.482590,110.964973 
	C27.482590,110.964973 27.724062,110.941483 28.068438,111.550888 
	C29.041691,112.059708 30.014944,112.568527 30.990088,113.013222 
	C30.990088,113.013222 30.928938,113.032654 31.177471,113.642776 
	C32.111866,114.124176 33.046261,114.605576 33.990185,115.012619 
	C33.990185,115.012619 33.915779,115.003555 34.070278,115.534050 
	C34.378624,115.711349 34.686970,115.888649 34.992146,116.004860 
	C34.992146,116.004860 34.939259,116.035591 35.163483,116.656212 
	C36.102570,117.132797 37.041656,117.609383 37.986191,118.020935 
	C37.986191,118.020935 37.923042,118.037407 38.154068,118.661713 
	C39.097954,119.134171 40.041843,119.606628 40.995586,120.006676 
	C40.995586,120.006676 40.923145,119.997047 41.063339,120.535881 
	C41.374527,120.711624 41.685715,120.887367 41.997627,120.999725 
	C41.997627,120.999725 41.936104,121.014999 42.153477,121.596497 
	C42.539162,121.680649 42.924850,121.764801 43.503109,121.979782 
	C43.503109,121.979782 43.735680,121.969276 44.013706,122.493828 
	C44.343262,122.685188 44.672821,122.876556 44.995880,122.998627 
	C44.995880,122.998627 44.926846,123.007484 45.073467,123.533646 
	C45.379517,123.704285 45.685566,123.874924 46.001793,123.995369 
	C46.001793,123.995369 45.955692,124.017685 46.172276,124.589783 
	C46.553436,124.670578 46.934597,124.751373 47.505745,124.966934 
	C47.505745,124.966934 47.737881,124.947716 48.084518,125.548294 
	C49.053673,126.055573 50.022827,126.562851 50.996872,127.006332 
	C50.996872,127.006332 50.933979,127.018097 51.176247,127.623627 
	C51.901443,128.014816 52.626640,128.405991 53.554192,128.943069 
	C53.554192,128.943069 53.801292,128.908859 54.040127,129.332947 
	C54.353825,129.225967 54.667522,129.118988 55.013920,129.020676 
	C55.013920,129.020676 55.016949,128.986984 55.567612,128.860138 
	C55.645576,128.519196 55.723541,128.178268 55.956326,126.949036 
	C55.883060,124.466179 55.633919,121.973610 55.770325,119.502327 
	C56.142235,112.764328 53.754105,107.808617 47.735771,104.236664 
	C41.930164,100.790977 36.577126,96.582771 30.710993,92.490295 
	C38.195450,87.173439 45.343624,82.309891 52.203209,77.068642 
	C53.875099,75.791199 55.413261,73.341492 55.582722,71.311394 
	C55.894550,67.575706 55.145157,63.751438 54.994667,59.280102 
	C54.921722,58.016434 54.848778,56.752766 54.775826,55.489094 
	C53.820194,55.865143 52.753792,56.081966 51.933521,56.652603 
	C50.516514,57.638363 49.252342,58.843822 47.985714,59.978031 
	C47.985714,59.978031 47.976299,59.913609 47.291870,59.980518 
	C46.114979,61.002998 44.938087,62.025478 43.512032,63.048779 
	C43.512032,63.048779 43.295834,63.172653 42.677429,63.076996 
	C42.429985,63.379040 42.182541,63.681087 41.996349,64.000092 
	C41.996349,64.000092 41.997463,63.936550 41.467678,64.087753 
	C41.260902,64.383438 41.054127,64.679131 40.245304,65.241272 
	C38.198521,66.882202 36.151733,68.523132 33.459988,70.027885 
	C32.951862,70.343628 32.443741,70.659370 31.997149,70.996132 
	C31.997149,70.996132 32.005337,70.931625 31.459810,71.066978 
	C31.277382,71.380043 31.094954,71.693115 30.997454,71.994881 
	C30.997454,71.994881 30.986000,71.909973 30.330803,72.011749 
	C29.533098,72.665016 28.735395,73.318283 27.996115,73.990601 
	C27.996115,73.990601 27.984886,73.930183 27.338703,74.030319 
	C26.535648,74.677574 25.732592,75.324829 24.994476,75.992165 
	C24.994476,75.992165 25.007980,75.925545 24.454121,76.097694 
	C24.230194,76.408203 24.006268,76.718719 23.490181,77.037682 
	C23.490181,77.037682 23.234665,77.179604 22.643805,77.113312 
	C22.411394,77.407578 22.178984,77.701843 22.007376,78.007355 
	C22.007376,78.007355 22.003624,77.945633 21.482382,78.102654 
	C21.296314,78.402939 21.110249,78.703224 20.996098,78.997711 
	C20.996098,78.997711 20.990168,78.925804 20.313154,79.014717 
	C19.452814,79.696884 18.592474,80.379059 17.484898,81.035179 
	C17.484898,81.035179 17.270836,81.161598 16.660301,81.088654 
	C16.416821,81.388725 16.173340,81.688789 15.997108,81.995453 
M137.998337,84.000847 
	C137.998337,84.000847 137.929916,84.003876 138.066971,84.544914 
	C138.378082,84.725723 138.689178,84.906540 138.993149,85.016235 
	C138.993149,85.016235 138.922089,85.023880 139.165268,85.623589 
	C139.780869,85.776855 140.396454,85.930122 140.988647,86.014427 
	C140.988647,86.014427 140.919861,86.038345 141.152435,86.660110 
	C142.098694,87.130592 143.044952,87.601067 143.997330,88.008644 
	C143.997330,88.008644 143.935654,88.022461 144.172516,88.642197 
	C145.110275,89.119118 146.048035,89.596039 146.995438,90.006111 
	C146.995438,90.006111 146.927933,90.003975 147.075638,90.534309 
	C147.383865,90.707993 147.692108,90.881668 148.001846,90.998032 
	C148.001846,90.998032 147.950333,91.023209 148.117096,91.566780 
	C148.381851,92.039993 148.646622,92.513214 148.992905,92.995590 
	C148.992905,92.995590 149.001831,92.914032 148.479858,93.088593 
	C148.298904,93.394821 148.117966,93.701057 148.003555,94.003075 
	C148.003555,94.003075 147.991821,93.937447 147.342331,94.024254 
	C146.613968,94.678780 145.885605,95.333305 144.857849,96.603264 
	C143.503113,97.734016 142.148376,98.864769 140.133102,99.985260 
	C139.397644,100.311729 138.662201,100.638199 137.988953,100.982780 
	C137.988953,100.982780 137.986160,100.918045 137.323730,100.991280 
	C136.529617,101.650543 135.735504,102.309807 134.994659,102.997734 
	C134.994659,102.997734 134.997345,102.937294 134.461731,103.075684 
	C134.281006,103.383484 134.100266,103.691292 133.992142,103.989304 
	C133.992142,103.989304 133.981964,103.916756 133.299179,104.001030 
	C132.106567,105.020172 130.913956,106.039314 129.492020,107.028564 
	C129.492020,107.028564 129.298279,107.154846 128.679184,107.091446 
	C128.432373,107.393707 128.185562,107.695961 128.005447,108.004799 
	C128.005447,108.004799 128.005432,107.937782 127.479408,108.091324 
	C127.297760,108.395348 127.116119,108.699371 127.002510,108.999947 
	C127.002510,108.999947 126.994003,108.932358 126.278503,109.042435 
	C125.903137,110.017067 125.527771,110.991707 125.011917,112.896736 
	C125.011917,118.307343 125.011917,123.717949 125.011917,130.727005 
	C127.641647,128.280533 129.366409,126.675972 131.756607,124.995270 
	C133.130066,123.941605 134.503525,122.887947 136.555008,121.974594 
	C137.393280,121.325111 138.231552,120.675629 139.006424,120.013367 
	C139.006424,120.013367 139.011337,120.077843 139.671417,119.996651 
	C140.468094,119.339691 141.264755,118.682724 142.002701,118.008430 
	C142.002701,118.008430 142.013992,118.068596 142.669357,117.986748 
	C143.462128,117.331848 144.254898,116.676941 144.996933,115.997917 
	C144.996933,115.997917 145.000687,116.053978 145.525955,115.906586 
	C145.707703,115.604050 145.889450,115.301521 146.002670,115.000710 
	C146.002670,115.000710 146.009064,115.068954 146.669037,114.999054 
	C147.471313,114.341812 148.273590,113.684563 149.011429,113.015236 
	C149.011429,113.015236 149.015472,113.080696 149.724319,112.989914 
	C151.889954,111.312645 154.055573,109.635368 156.488815,107.953758 
	C156.488815,107.953758 156.719116,107.817368 157.370789,107.887589 
	C157.647842,107.567810 157.924911,107.248032 158.571121,106.834953 
	C158.809082,106.688065 158.928925,106.474808 159.587906,106.009865 
	C160.411880,105.347694 161.235840,104.685524 162.002151,104.006119 
	C162.002151,104.006119 162.015656,104.064766 162.685699,103.984550 
	C163.808594,102.991440 164.931473,101.998329 165.999420,100.990173 
	C165.999420,100.990173 166.007584,101.046555 166.592484,100.837257 
	C166.407669,100.187233 166.222870,99.537216 166.267334,98.167969 
	C166.164322,93.771912 166.061295,89.375854 165.985886,84.347954 
	C165.663849,83.880913 165.341812,83.413872 165.000580,82.999168 
	C165.000580,82.999168 165.052414,82.978607 164.814789,82.365677 
	C163.881241,81.886902 162.947708,81.408127 162.005417,80.995201 
	C162.005417,80.995201 162.071823,80.993729 161.922714,80.467026 
	C161.617142,80.291565 161.311569,80.116112 160.997223,80.000717 
	C160.997223,80.000717 161.056808,79.989143 160.856720,79.423042 
	C160.487823,79.340057 160.118927,79.257065 159.508759,79.043564 
	C159.508759,79.043564 159.234451,79.046432 158.967560,78.524216 
	C158.643768,78.331322 158.319962,78.138428 157.994156,78.006866 
	C157.994156,78.006866 158.053864,77.992752 157.862579,77.410103 
	C157.484879,77.334343 157.107162,77.258591 156.493408,77.053551 
	C156.493408,77.053551 156.224487,77.042793 155.965607,76.515923 
	C155.641968,76.320374 155.318329,76.124817 155.005386,75.993927 
	C155.005386,75.993927 155.066788,75.970985 154.828018,75.355270 
	C153.888885,74.877846 152.949768,74.400429 152.005737,73.987564 
	C152.005737,73.987564 152.069351,73.975555 151.846420,73.351181 
	C150.899155,72.875320 149.951874,72.399467 149.000595,72.001793 
	C149.000595,72.001793 149.078781,72.005882 148.914032,71.482964 
	C148.607651,71.308372 148.301270,71.133781 147.993301,71.008492 
	C147.993301,71.008492 148.036804,70.985222 147.719711,70.376755 
	C146.829666,70.219688 145.939636,70.062614 144.798111,69.304153 
	C143.469437,68.272438 142.140762,67.240723 140.877197,65.558983 
	C140.500198,65.434181 140.123184,65.309387 139.500793,65.055817 
	C139.500793,65.055817 139.223663,65.057022 138.897064,64.448647 
	C137.935959,63.941994 136.974854,63.435341 136.006638,62.995934 
	C136.006638,62.995934 136.074249,62.995682 135.911774,62.479435 
	C135.610046,62.304626 135.308334,62.129818 134.999268,62.003178 
	C134.999268,62.003178 135.038101,61.973778 134.783005,61.327808 
	C131.864929,59.268440 128.946854,57.209068 124.876259,54.336330 
	C124.876259,61.121868 124.876259,67.085335 124.994431,73.777596 
	C125.658417,74.539696 126.322395,75.301796 126.999840,75.997917 
	C126.999840,75.997917 126.932846,75.991165 127.080475,76.524055 
	C127.389313,76.700294 127.698151,76.876534 128.006042,76.993301 
	C128.006042,76.993301 127.949959,77.013084 128.198074,77.599472 
	C128.802307,77.760658 129.406555,77.921837 130.001999,77.996391 
	C130.001999,77.996391 129.915359,78.005058 130.076508,78.531242 
	C130.384216,78.706657 130.691925,78.882080 130.997833,78.999168 
	C130.997833,78.999168 130.947495,79.028740 131.205002,79.664452 
	C133.130798,80.801086 135.056580,81.937721 136.994232,83.006264 
	C136.994232,83.006264 136.925568,82.998360 137.075455,83.529625 
	C137.382507,83.709518 137.689575,83.889412 137.998337,84.000847 
M30.474312,25.080683 
	C30.285515,25.389753 30.096718,25.698824 29.972754,25.982592 
	C29.972754,25.982592 29.942602,25.919867 29.323273,26.179653 
	C26.792652,29.761335 21.729959,31.538395 21.928087,37.205845 
	C24.968744,34.495945 28.009403,31.786049 31.677633,28.788633 
	C32.380371,28.402924 33.227299,28.158354 33.763981,27.610092 
	C40.575436,20.651667 48.616955,15.589191 57.598652,11.935956 
	C59.481506,11.170120 61.316975,10.287791 63.174278,9.459144 
	C62.914104,8.900259 62.653934,8.341373 62.393761,7.782488 
	C51.357567,9.189947 43.180882,16.659729 33.545265,22.121572 
	C33.339016,22.408863 33.132767,22.696154 32.992542,22.996813 
	C32.992542,22.996813 32.998093,22.929680 32.468201,23.085957 
	C32.282818,23.392176 32.097435,23.698395 32.004372,24.004902 
	C32.004372,24.004902 32.004860,23.912584 31.473501,24.081322 
	C31.285412,24.389885 31.097324,24.698448 31.006355,25.006563 
	C31.006355,25.006563 31.006186,24.909441 30.474312,25.080683 
M161.505417,151.868271 
	C161.598526,151.548096 161.691635,151.227905 161.958908,150.521851 
	C161.958908,150.521851 162.027634,150.104111 162.527069,149.920929 
	C162.710831,149.630356 162.894608,149.339798 163.012482,149.028442 
	C163.012482,149.028442 162.998062,149.096024 163.539001,148.940414 
	C163.720047,148.626434 163.901093,148.312439 163.997650,147.998657 
	C163.997650,147.998657 163.997787,148.083160 164.522873,147.909180 
	C164.715591,147.604996 164.908295,147.300827 165.021088,147.006195 
	C165.021088,147.006195 165.031235,147.086060 165.623978,146.839539 
	C165.800613,146.233154 165.977249,145.626770 166.799606,144.715637 
	C167.823227,142.925522 168.952209,141.183548 169.805679,139.315689 
	C170.058777,138.761749 169.761551,137.487305 169.307678,137.208496 
	C168.833740,136.917358 167.503693,137.168823 167.173676,137.630463 
	C164.747330,141.024612 162.477829,144.530899 159.867538,148.635086 
	C155.143524,153.097473 150.419510,157.559860 145.695496,162.022247 
	C145.875824,162.390121 146.056152,162.757996 146.236481,163.125870 
	C147.826019,162.805862 149.415573,162.485855 151.530945,161.947433 
	C151.716415,161.629776 151.901886,161.312119 151.996414,160.994019 
	C151.996414,160.994019 151.995758,161.084976 152.530121,160.922104 
	C152.716660,160.612274 152.903198,160.302444 152.993088,159.993439 
	C152.993088,159.993439 152.993622,160.090073 153.527908,159.923248 
	C153.714920,159.612961 153.901932,159.302673 153.992981,158.993286 
	C153.992981,158.993286 153.993591,159.089249 154.527390,158.922638 
	C154.714066,158.612579 154.900742,158.302521 154.993042,157.993225 
	C154.993042,157.993225 154.993500,158.087631 155.523895,157.917480 
	C155.711288,157.609070 155.898666,157.300644 155.992950,156.992874 
	C155.992950,156.992874 155.993286,157.085983 156.522736,156.915649 
	C156.710068,156.607773 156.897400,156.299896 156.992569,155.992523 
	C156.992569,155.992523 156.992767,156.084717 157.519531,155.911148 
	C157.708084,155.604767 157.896652,155.298401 157.992798,154.993118 
	C157.992798,154.993118 157.993561,155.085541 158.525665,154.919434 
	C158.712692,154.610764 158.899719,154.302094 158.993866,153.994019 
	C158.993866,153.994019 158.994217,154.086899 159.526215,153.920166 
	C159.713013,153.611282 159.899796,153.302399 159.994370,152.995041 
	C159.994370,152.995041 159.995667,153.087265 160.525620,152.921341 
	C160.707367,152.612259 160.889114,152.303162 160.998795,152.001495 
	C160.998795,152.001495 161.006210,152.073578 161.505417,151.868271 
M77.374245,110.221397 
	C77.309654,110.868782 77.245064,111.516174 77.050179,112.472122 
	C77.050179,112.472122 77.039101,112.806885 76.381187,113.234070 
	C75.311249,117.222412 74.241310,121.210747 73.040405,125.467865 
	C73.040405,125.467865 73.040718,125.766846 72.425919,126.155846 
	C72.348526,126.852852 72.271126,127.549850 72.071960,128.497849 
	C72.071960,128.497849 72.068260,128.776794 71.426773,129.193222 
	C71.336906,130.183411 71.247032,131.173584 71.033676,132.450150 
	C71.033676,132.450150 71.044922,132.761841 70.457008,133.163635 
	C70.366653,133.842316 70.276291,134.521011 70.059448,135.482513 
	C70.059448,135.482513 70.051971,135.792252 69.379463,136.244080 
	C68.885490,138.358597 68.391518,140.473114 67.669724,143.562820 
	C72.427818,142.968445 76.232040,142.493225 79.996414,141.999451 
	C79.996414,141.999451 80.016495,142.038620 80.619743,141.767014 
	C80.690063,141.128738 80.760384,140.490448 80.960808,139.531311 
	C80.960808,139.531311 80.980133,139.185623 81.574677,138.824203 
	C81.647133,138.156372 81.719582,137.488525 81.923599,136.509140 
	C81.923599,136.509140 81.912842,136.171127 82.534210,135.688400 
	C82.966690,133.435684 83.399162,131.182953 83.975906,128.149887 
	C88.453072,114.422981 92.936302,100.698059 97.404373,86.968201 
	C99.164139,81.560654 100.980843,76.169250 102.610435,70.722275 
	C105.164566,62.185024 107.581924,53.606861 110.714508,44.654778 
	C111.506126,41.599186 112.297737,38.543594 113.211754,35.015549 
	C109.187752,35.015549 105.738495,34.884956 102.313889,35.117451 
	C101.561127,35.168556 100.895966,36.509781 100.053719,37.523010 
	C100.053719,37.523010 100.048470,37.822155 99.448875,38.168629 
	C99.360870,38.828388 99.272865,39.488144 99.051125,40.451668 
	C99.051125,40.451668 99.048775,40.783554 98.391037,41.221432 
	C97.901894,43.487751 97.412750,45.754070 96.991638,47.997051 
	C96.991638,47.997051 96.968048,47.929119 96.347298,48.260830 
	C96.206573,49.180904 96.065857,50.100983 95.991646,50.997097 
	C95.991646,50.997097 95.967117,50.930801 95.335861,51.248917 
	C95.201584,52.174194 95.067307,53.099468 94.999107,54.001900 
	C94.999107,54.001900 94.974770,53.936356 94.339516,54.325340 
	C93.949425,56.264057 93.559341,58.202774 93.039986,60.445431 
	C93.039986,60.445431 93.042442,60.775707 92.408653,61.159752 
	C92.242256,62.114182 92.075851,63.068611 91.987061,63.986572 
	C91.987061,63.986572 91.950142,63.909176 91.317909,64.255013 
	C90.933693,65.824974 90.549469,67.394936 90.014336,69.740616 
	C89.328453,72.451080 88.642563,75.161545 87.295540,78.216995 
	C86.587929,80.840569 85.880310,83.464142 85.040787,86.448868 
	C85.040787,86.448868 85.020470,86.832817 84.401642,87.209503 
	C84.242523,88.147156 84.083405,89.084801 83.992630,90.001854 
	C83.992630,90.001854 83.971870,89.933571 83.306297,90.282097 
	C82.931244,92.231438 82.556198,94.180779 81.762230,96.794014 
	C80.839142,100.151291 79.916054,103.508575 78.367531,107.220352 
	C78.217102,108.155991 78.066673,109.091637 77.998070,110.000916 
	C77.998070,110.000916 77.971649,109.919121 77.374245,110.221397 
z"/>
<path fill="#000000" opacity="1.000000" stroke="none" 
	d="
M101.000000,1.000000 
	C128.257446,1.000000 155.514877,1.000000 183.000000,1.000000 
	C183.000000,26.020433 183.000000,51.041557 182.731094,76.866501 
	C181.817581,75.780220 180.993881,73.930511 180.557129,71.993546 
	C177.481659,58.353889 171.835541,46.054180 161.881653,35.561371 
	C158.855103,31.821283 155.969711,28.401836 152.953857,24.676056 
	C151.894760,23.878544 150.966125,23.387363 150.035736,22.933634 
	C150.034012,22.971083 150.108963,22.973185 150.008789,22.722630 
	C149.612442,22.283730 149.316254,22.095385 148.946579,21.680696 
	C148.686035,21.168352 148.422577,21.007414 147.991211,20.720711 
	C147.603790,20.287111 147.307892,20.104340 147.010223,19.954222 
	C147.008453,19.986877 147.072769,19.974983 146.990417,19.731121 
	C146.611420,19.393612 146.314789,19.299965 145.656097,19.116528 
	C144.279129,18.533953 143.126160,18.212465 142.270203,17.522493 
	C130.807297,8.282511 118.021774,2.713032 102.607323,3.093768 
	C101.795448,2.344253 101.397728,1.672127 101.000000,1.000000 
z"/>
<path fill="#000000" opacity="1.000000" stroke="none" 
	d="
M78.000000,184.000000 
	C52.406937,184.000000 26.813871,184.000000 1.000000,184.000000 
	C1.000000,158.979538 1.000000,133.958435 1.279119,108.179413 
	C1.755043,107.603378 1.951847,107.785248 2.205532,108.361557 
	C4.434334,119.860176 7.995014,130.436127 14.134155,140.285736 
	C14.398989,140.734528 14.684859,140.920914 14.971842,141.073441 
	C14.972955,141.039581 14.909631,141.063690 15.055426,141.380203 
	C18.087294,145.484726 20.973366,149.272751 24.003475,153.366547 
	C29.223412,158.082336 34.071281,162.794083 39.423130,166.838989 
	C50.245632,175.018616 62.319195,180.483032 75.964294,182.061035 
	C75.985352,182.029480 75.913849,182.054871 76.000122,182.306702 
	C76.427681,182.387314 76.768982,182.216095 77.460693,182.191483 
	C77.874069,182.892059 77.937035,183.446030 78.000000,184.000000 
z"/>
<path fill="#2EB8D2" opacity="1.000000" stroke="none" 
	d="
M162.022797,35.882011 
	C171.835541,46.054180 177.481659,58.353889 180.557129,71.993546 
	C180.993881,73.930511 181.817581,75.780220 182.731094,77.335159 
	C183.000000,88.020897 183.000000,99.041786 183.000000,110.531342 
	C182.353607,111.397705 181.318283,111.656967 181.119919,112.214165 
	C178.662704,119.116524 176.396133,126.087219 173.897308,132.973862 
	C173.448059,134.211945 172.170990,135.149643 171.276123,136.226028 
	C170.798889,136.064865 170.321671,135.903687 169.844437,135.742523 
	C170.253632,133.714722 170.245911,131.477448 171.141876,129.694214 
	C175.822113,120.379089 178.044296,110.496361 179.068207,100.180695 
	C181.342072,77.271973 174.224884,57.187012 161.228088,38.163914 
	C161.488007,37.006104 161.755402,36.444057 162.022797,35.882011 
z"/>
<path fill="#2EB6D0" opacity="1.000000" stroke="none" 
	d="
M2.148651,107.967125 
	C1.951847,107.785248 1.755043,107.603378 1.279119,107.710754 
	C1.000000,105.958336 1.000000,103.916664 1.237837,101.097855 
	C1.317116,93.880478 1.158558,87.440239 1.000000,81.000000 
	C1.000000,78.958336 1.000000,76.916664 1.000000,74.437500 
	C1.665972,73.368317 2.638865,72.860115 2.950371,72.085831 
	C6.016107,64.465485 8.895244,56.769051 12.046203,49.185146 
	C12.490443,48.115929 14.109781,47.534943 15.490376,47.096928 
	C9.197761,62.242802 3.584958,77.250046 4.014424,93.754944 
	C4.112392,97.519974 4.659423,101.273308 5.009275,105.864998 
	C4.951894,108.209167 4.885008,109.720360 4.818295,111.227654 
	C3.841107,110.034180 2.994878,109.000656 2.148651,107.967125 
z"/>
<path fill="#49C2D5" opacity="1.000000" stroke="none" 
	d="
M98.948410,5.123554 
	C91.294060,5.725990 83.647408,6.498819 75.981483,6.844799 
	C73.023621,6.978293 70.022026,6.142505 65.619583,5.560500 
	C70.006348,3.824862 72.863281,2.694506 75.360107,1.282075 
	C78.030594,1.000000 81.061188,1.000000 84.447845,1.281506 
	C83.987572,2.142395 83.171242,2.721779 82.218987,3.397632 
	C88.288574,4.023812 93.618492,4.573683 98.948410,5.123554 
z"/>
<path fill="#2EC1DB" opacity="1.000000" stroke="none" 
	d="
M99.077637,5.383949 
	C93.618492,4.573683 88.288574,4.023812 82.218987,3.397632 
	C83.171242,2.721779 83.987572,2.142395 84.901947,1.281506 
	C90.022095,1.000000 95.044182,1.000000 100.533142,1.000000 
	C101.397728,1.672127 101.795448,2.344253 102.733551,3.333489 
	C103.499115,4.142510 103.724304,4.634422 103.949493,5.126335 
	C102.368614,5.299006 100.787743,5.471676 99.077637,5.383949 
z"/>
<path fill="#2ABEDB" opacity="1.000000" stroke="none" 
	d="
M78.458069,184.000000 
	C77.937035,183.446030 77.874069,182.892059 77.161537,182.184204 
	C76.312592,182.038513 76.113220,182.046692 75.913849,182.054871 
	C75.913849,182.054871 75.985352,182.029480 76.135345,181.712906 
	C79.236855,180.916138 82.188370,180.435959 85.139885,179.955780 
	C85.139885,179.955780 85.580093,180.010406 86.057602,180.273468 
	C87.356735,181.691010 88.178368,182.845505 89.000000,184.000000 
	C85.638710,184.000000 82.277428,184.000000 78.458069,184.000000 
z"/>
<path fill="#2ABEDB" opacity="1.000000" stroke="none" 
	d="
M109.021973,181.837189 
	C108.127121,182.383865 107.232269,182.930557 106.668709,183.738617 
	C104.958336,184.000000 102.916664,184.000000 100.224327,183.788574 
	C98.722130,182.451614 97.870605,181.326065 97.019073,180.200500 
	C99.018761,180.128845 101.018448,180.057190 103.829941,179.979401 
	C106.101830,180.594559 107.561905,181.215866 109.021973,181.837189 
z"/>
<path fill="#42C2D8" opacity="1.000000" stroke="none" 
	d="
M96.563141,180.129868 
	C97.870605,181.326065 98.722130,182.451614 99.786827,183.788574 
	C96.638710,184.000000 93.277428,184.000000 89.458069,184.000000 
	C88.178368,182.845505 87.356735,181.691010 86.266724,180.347351 
	C89.367966,180.125183 92.737587,180.092209 96.563141,180.129868 
z"/>
<path fill="#37D8F3" opacity="1.000000" stroke="none" 
	d="
M1.000000,81.468399 
	C1.158558,87.440239 1.317116,93.880478 1.237837,100.660355 
	C1.000000,94.645599 1.000000,88.291206 1.000000,81.468399 
z"/>
<path fill="#12BFDD" opacity="1.000000" stroke="none" 
	d="
M17.270836,81.161598 
	C17.270836,81.161598 17.484898,81.035179 17.975285,81.033333 
	C19.307169,80.329590 20.148668,79.627701 20.990168,78.925804 
	C20.990168,78.925804 20.996098,78.997711 21.187824,78.877457 
	C21.587576,78.486679 21.795603,78.216156 22.003626,77.945633 
	C22.003624,77.945633 22.007376,78.007355 22.219215,77.915688 
	C22.698925,77.609215 22.966793,77.394409 23.234663,77.179596 
	C23.234665,77.179604 23.490181,77.037682 23.884296,76.899780 
	C24.521601,76.483101 24.764791,76.204323 25.007980,75.925545 
	C25.007980,75.925545 24.994476,75.992165 25.304893,75.974762 
	C26.405169,75.281631 27.195028,74.605911 27.984886,73.930183 
	C27.984886,73.930183 27.996115,73.990601 28.309614,73.981659 
	C29.410742,73.285141 30.198372,72.597557 30.986000,71.909973 
	C30.986000,71.909973 30.997454,71.994881 31.180309,71.868721 
	C31.577223,71.472252 31.791281,71.201942 32.005341,70.931625 
	C32.005337,70.931625 31.997149,70.996132 32.262356,70.972015 
	C33.053356,70.686623 33.579155,70.425346 34.104950,70.164062 
	C36.151733,68.523132 38.198521,66.882202 40.785973,64.992462 
	C41.550243,64.474617 41.773849,64.205582 41.997459,63.936546 
	C41.997463,63.936550 41.996349,64.000092 42.224201,63.919060 
	C42.733315,63.616234 43.014576,63.394444 43.295834,63.172653 
	C43.295834,63.172653 43.512032,63.048779 43.999237,62.998676 
	C45.649727,61.936920 46.813011,60.925262 47.976299,59.913609 
	C47.976299,59.913609 47.985714,59.978031 48.305660,59.985855 
	C50.696423,59.983810 52.767235,59.973949 54.838051,59.964088 
	C55.145157,63.751438 55.894550,67.575706 55.582722,71.311394 
	C55.413261,73.341492 53.875099,75.791199 52.203209,77.068642 
	C45.343624,82.309891 38.195450,87.173439 30.710993,92.490295 
	C36.577126,96.582771 41.930164,100.790977 47.735771,104.236664 
	C53.754105,107.808617 56.142235,112.764328 55.770325,119.502327 
	C55.633919,121.973610 55.883060,124.466179 55.705078,127.556007 
	C55.222023,128.391998 55.076397,128.666656 55.016949,128.986984 
	C55.016949,128.986984 55.013920,129.020676 54.705940,128.952240 
	C54.199070,128.892151 54.000179,128.900513 53.801292,128.908859 
	C53.801292,128.908859 53.554192,128.943069 53.297539,128.586334 
	C52.338585,127.825768 51.636280,127.421936 50.933979,127.018097 
	C50.933979,127.018097 50.996872,127.006332 50.884712,126.704636 
	C49.760990,125.917870 48.749435,125.432793 47.737881,124.947716 
	C47.737881,124.947716 47.505745,124.966934 47.219437,124.704613 
	C46.607311,124.300758 46.281502,124.159225 45.955692,124.017685 
	C45.955692,124.017685 46.001793,123.995369 45.878803,123.792679 
	C45.479492,123.395821 45.203171,123.201653 44.926846,123.007484 
	C44.926846,123.007484 44.995880,122.998627 44.839386,122.797333 
	C44.367153,122.387115 44.051418,122.178192 43.735680,121.969276 
	C43.735680,121.969276 43.503109,121.979782 43.208714,121.723282 
	C42.588245,121.316193 42.262177,121.165596 41.936104,121.014999 
	C41.936104,121.014999 41.997627,120.999725 41.871342,120.805237 
	C41.471085,120.406189 41.197113,120.201622 40.923145,119.997047 
	C40.923145,119.997047 40.995586,120.006676 40.893669,119.716690 
	C39.835518,118.963600 38.879280,118.500504 37.923042,118.037407 
	C37.923042,118.037407 37.986191,118.020935 37.888565,117.727997 
	C36.840378,116.968575 35.889816,116.502083 34.939255,116.035599 
	C34.939259,116.035591 34.992146,116.004860 34.870941,115.806046 
	C34.471748,115.406013 34.193764,115.204781 33.915779,115.003555 
	C33.915779,115.003555 33.990185,115.012619 33.885681,114.724487 
	C32.830429,113.968460 31.879683,113.500557 30.928936,113.032654 
	C30.928938,113.032654 30.990088,113.013222 30.875498,112.711487 
	C29.748625,111.920326 28.736343,111.430908 27.724062,110.941483 
	C27.724062,110.941483 27.482590,110.964973 27.186438,110.715645 
	C26.576015,110.315582 26.261745,110.164848 25.947475,110.014114 
	C25.947475,110.014114 26.002619,109.997925 25.885839,109.793015 
	C25.489391,109.394630 25.209723,109.201157 24.930054,109.007675 
	C24.930054,109.007675 24.997066,108.997627 24.846109,108.794655 
	C24.385738,108.381493 24.076323,108.171310 23.766909,107.961121 
	C23.766909,107.961121 23.501013,107.959099 23.191008,107.709045 
	C22.565685,107.309158 22.250366,107.159317 21.935047,107.009476 
	C21.935045,107.009483 22.000067,106.997978 21.871325,106.806595 
	C21.469393,106.408043 21.196205,106.200867 20.923016,105.993698 
	C20.923014,105.993698 20.995506,106.005219 20.921379,105.694016 
	C19.283737,104.544365 17.720221,103.705925 16.156704,102.867477 
	C10.986722,98.338364 13.606958,92.287239 13.262676,86.232727 
	C13.711782,85.369072 13.887504,85.106689 14.023106,84.817429 
	C14.023106,84.817429 14.039917,84.531647 14.297214,84.213882 
	C14.697579,83.577095 14.840650,83.258072 14.983720,82.939041 
	C14.983720,82.939041 15.000294,82.998398 15.198685,82.876930 
	C15.596895,82.479607 15.796714,82.203743 15.996531,81.927879 
	C15.996531,81.927879 15.997108,81.995453 16.211594,81.900215 
	C16.707664,81.590515 16.989250,81.376060 17.270836,81.161598 
z"/>
<path fill="#0EC0DF" opacity="1.000000" stroke="none" 
	d="
M156.719116,107.817368 
	C156.719116,107.817368 156.488815,107.953758 155.974823,107.983444 
	C153.312378,109.702316 151.163925,111.391510 149.015472,113.080704 
	C149.015472,113.080696 149.011429,113.015236 148.698898,113.018105 
	C147.593933,113.703629 146.801498,114.386292 146.009064,115.068954 
	C146.009064,115.068954 146.002670,115.000710 145.803619,115.114059 
	C145.403259,115.502930 145.201965,115.778450 145.000687,116.053978 
	C145.000687,116.053978 144.996933,115.997917 144.676178,115.999268 
	C143.574936,116.689941 142.794464,117.379265 142.013992,118.068588 
	C142.013992,118.068596 142.002701,118.008430 141.688110,118.013504 
	C140.586121,118.705009 139.798721,119.391426 139.011337,120.077843 
	C139.011337,120.077843 139.006424,120.013367 138.705734,120.015076 
	C137.562363,120.622620 136.719666,121.228455 135.876984,121.834282 
	C134.503525,122.887947 133.130066,123.941605 131.078339,125.040733 
	C129.052048,125.294258 127.704010,125.502312 125.882355,125.783478 
	C125.882355,120.828278 125.882355,116.396736 125.979156,111.656456 
	C126.381966,110.542603 126.687981,109.737480 126.994003,108.932358 
	C126.994003,108.932358 127.002510,108.999947 127.199554,108.882538 
	C127.599548,108.489342 127.802490,108.213562 128.005432,107.937782 
	C128.005432,107.937782 128.005447,108.004799 128.227127,107.914284 
	C128.731964,107.600800 129.015121,107.377823 129.298279,107.154846 
	C129.298279,107.154846 129.492020,107.028564 129.976776,107.002693 
	C131.635025,105.956802 132.808502,104.936783 133.981964,103.916763 
	C133.981964,103.916756 133.992142,103.989304 134.189743,103.878067 
	C134.590683,103.490318 134.794006,103.213799 134.997345,102.937286 
	C134.997345,102.937294 134.994659,102.997734 135.312317,103.000473 
	C136.415359,102.308159 137.200760,101.613098 137.986160,100.918045 
	C137.986160,100.918045 137.988953,100.982780 138.276642,100.995506 
	C139.307434,100.670670 140.050537,100.333099 140.793640,99.995529 
	C142.148376,98.864769 143.503113,97.734016 145.331726,96.264542 
	C146.534332,95.263039 147.263077,94.600243 147.991821,93.937454 
	C147.991821,93.937447 148.003555,94.003075 148.198532,93.877518 
	C148.596283,93.472656 148.799057,93.193344 149.001831,92.914032 
	C149.001831,92.914032 148.992905,92.995590 149.209747,92.927353 
	C148.934494,92.247147 148.442413,91.635178 147.950333,91.023209 
	C147.950333,91.023209 148.001846,90.998032 147.887238,90.792603 
	C147.491074,90.392776 147.209503,90.198372 146.927933,90.003975 
	C146.927933,90.003975 146.995438,90.006111 146.897339,89.714546 
	C145.844727,88.956146 144.890182,88.489304 143.935654,88.022461 
	C143.935654,88.022461 143.997330,88.008644 143.899780,87.714035 
	C142.841446,86.959061 141.880646,86.498703 140.919861,86.038345 
	C140.919861,86.038345 140.988647,86.014427 140.806351,85.813202 
	C140.056732,85.415939 139.489410,85.219910 138.922089,85.023880 
	C138.922089,85.023880 138.993149,85.016235 138.880920,84.815414 
	C138.489090,84.411018 138.209503,84.207443 137.929916,84.003876 
	C137.929916,84.003876 137.998337,84.000847 137.878479,83.803017 
	C137.480942,83.402908 137.203247,83.200638 136.925568,82.998360 
	C136.925568,82.998360 136.994232,83.006264 136.928040,82.692886 
	C134.890396,81.262589 132.918945,80.145668 130.947495,79.028740 
	C130.947495,79.028740 130.997833,78.999168 130.874222,78.800827 
	C130.472198,78.403336 130.193771,78.204201 129.915359,78.005058 
	C129.915359,78.005058 130.001999,77.996391 129.814102,77.803307 
	C129.067459,77.411179 128.508713,77.212135 127.949959,77.013084 
	C127.949959,77.013084 128.006042,76.993301 127.880997,76.796951 
	C127.481590,76.397461 127.207214,76.194313 126.932846,75.991165 
	C126.932846,75.991165 126.999840,75.997917 126.971169,75.706436 
	C126.622612,74.612190 126.302727,73.809418 125.983139,72.541443 
	C125.983452,67.743629 125.983452,63.411011 125.983452,58.781788 
	C129.608963,60.059872 132.323532,61.016823 135.038101,61.973778 
	C135.038101,61.973778 134.999268,62.003178 135.119720,62.208385 
	C135.518204,62.607620 135.796234,62.801651 136.074249,62.995682 
	C136.074249,62.995682 136.006638,62.995934 136.120941,63.292755 
	C137.231384,64.078728 138.227524,64.567879 139.223663,65.057022 
	C139.223663,65.057022 139.500793,65.055817 139.783798,65.309982 
	C140.293793,65.803886 140.542221,66.018837 140.812088,66.209000 
	C142.140762,67.240723 143.469437,68.272438 145.143890,69.855484 
	C146.338730,70.599625 147.187759,70.792419 148.036804,70.985222 
	C148.036804,70.985222 147.993301,71.008492 148.119507,71.209595 
	C148.523407,71.609085 148.801086,71.807487 149.078781,72.005882 
	C149.078781,72.005882 149.000595,72.001793 149.109039,72.282532 
	C150.168121,73.034035 151.118729,73.504791 152.069351,73.975555 
	C152.069351,73.975555 152.005737,73.987564 152.104355,74.280594 
	C153.157578,75.039421 154.112183,75.505203 155.066788,75.970985 
	C155.066788,75.970985 155.005386,75.993927 155.149048,76.202179 
	C155.603317,76.621223 155.913895,76.832008 156.224487,77.042793 
	C156.224487,77.042793 156.493408,77.053551 156.802429,77.302933 
	C157.425583,77.699127 157.739731,77.845940 158.053864,77.992752 
	C158.053864,77.992752 157.994156,78.006866 158.140137,78.220322 
	C158.602234,78.638000 158.918335,78.842216 159.234451,79.046432 
	C159.234451,79.046432 159.508759,79.043564 159.819275,79.291000 
	C160.438812,79.688675 160.747803,79.838905 161.056808,79.989143 
	C161.056808,79.989143 160.997223,80.000717 161.106323,80.211105 
	C161.500885,80.612244 161.786362,80.802986 162.071823,80.993729 
	C162.071823,80.993729 162.005417,80.995201 162.106628,81.284805 
	C163.156036,82.042473 164.104218,82.510536 165.052414,82.978607 
	C165.052414,82.978607 165.000580,82.999168 165.018372,83.265808 
	C165.343552,84.014900 165.650909,84.497345 165.958282,84.979797 
	C166.061295,89.375854 166.164322,93.771912 166.133270,98.887238 
	C166.002014,100.086517 166.004791,100.566536 166.007568,101.046555 
	C166.007584,101.046555 165.999420,100.990173 165.667999,100.998398 
	C164.229614,102.026009 163.122635,103.045387 162.015656,104.064774 
	C162.015656,104.064766 162.002151,104.006119 161.679901,104.017075 
	C160.548676,104.750412 159.739670,105.472794 158.930679,106.195168 
	C158.928925,106.474808 158.809082,106.688065 158.107773,106.971985 
	C157.335983,107.345131 157.027557,107.581245 156.719116,107.817368 
z"/>
<path fill="#0FBFDE" opacity="1.000000" stroke="none" 
	d="
M81.912842,136.171127 
	C81.912842,136.171127 81.923599,136.509140 81.676201,136.929077 
	C81.279243,137.961227 81.129692,138.573425 80.980133,139.185623 
	C80.980133,139.185623 80.960808,139.531311 80.715134,139.933746 
	C80.318474,140.903671 80.167488,141.471146 80.016495,142.038620 
	C80.016495,142.038620 79.996414,141.999451 79.561417,141.979950 
	C70.104134,142.042191 70.104134,142.042191 70.051971,135.792252 
	C70.051971,135.792252 70.059448,135.482513 70.316856,135.071411 
	C70.731155,134.027481 70.888039,133.394653 71.044922,132.761841 
	C71.044922,132.761841 71.033676,132.450150 71.285240,132.001846 
	C71.713959,130.627960 71.891113,129.702377 72.068260,128.776794 
	C72.068260,128.776794 72.071960,128.497849 72.328934,128.098221 
	C72.737511,127.054680 72.889114,126.410767 73.040710,125.766846 
	C73.040718,125.766846 73.040405,125.467865 73.409874,125.143234 
	C74.865929,120.814690 75.952515,116.810791 77.039101,112.806885 
	C77.039101,112.806885 77.050179,112.472122 77.294189,112.068077 
	C77.682686,111.082397 77.827164,110.500755 77.971649,109.919121 
	C77.971649,109.919121 77.998070,110.000916 78.188202,109.757401 
	C78.583214,108.631210 78.788086,107.748535 78.992966,106.865852 
	C79.916054,103.508575 80.839142,100.151291 82.280090,96.263649 
	C83.189262,93.800049 83.580566,91.866806 83.971870,89.933571 
	C83.971870,89.933571 83.992630,90.001854 84.196327,89.757423 
	C84.606842,88.619598 84.813652,87.726212 85.020470,86.832817 
	C85.020470,86.832817 85.040787,86.448868 85.366020,86.025101 
	C86.446396,83.024887 87.201538,80.448448 87.956673,77.872009 
	C88.642563,75.161545 89.328453,72.451080 90.401749,69.195038 
	C91.176163,67.069366 91.563148,65.489273 91.950142,63.909176 
	C91.950142,63.909176 91.987061,63.986572 92.185745,63.742325 
	C92.603760,62.590618 92.823105,61.683163 93.042442,60.775707 
	C93.042442,60.775707 93.039986,60.445431 93.367188,60.032196 
	C94.121178,57.724762 94.547974,55.830559 94.974770,53.936356 
	C94.974770,53.936356 94.999107,54.001900 95.191025,53.760441 
	C95.577675,52.656254 95.772400,51.793530 95.967117,50.930801 
	C95.967117,50.930801 95.991646,50.997097 96.190353,50.760807 
	C96.582054,49.659386 96.775055,48.794254 96.968048,47.929119 
	C96.968048,47.929119 96.991638,47.997051 97.223694,47.746315 
	C97.986763,45.258236 98.517769,43.020897 99.048775,40.783554 
	C99.048775,40.783554 99.051125,40.451668 99.302307,40.040855 
	C99.718483,39.027416 99.883476,38.424786 100.048470,37.822155 
	C100.048470,37.822155 100.053719,37.523010 100.563904,37.326027 
	C110.294144,36.634701 110.294144,36.634701 110.057205,45.046024 
	C107.581924,53.606861 105.164566,62.185024 102.610435,70.722275 
	C100.980843,76.169250 99.164139,81.560654 97.404373,86.968201 
	C92.936302,100.698059 88.453072,114.422981 83.671051,128.825851 
	C82.881744,131.724915 82.397293,133.948029 81.912842,136.171127 
z"/>
<path fill="#3ABCD3" opacity="1.000000" stroke="none" 
	d="
M84.905212,179.595932 
	C82.188370,180.435959 79.236855,180.916138 76.114288,181.744476 
	C62.319195,180.483032 50.245632,175.018616 39.423130,166.838989 
	C34.071281,162.794083 29.223412,158.082336 24.287830,153.228241 
	C24.994625,152.503052 25.561098,152.221954 26.127571,151.940857 
	C30.693188,155.948380 34.840759,160.627411 39.929184,163.795074 
	C46.434162,167.844513 53.765980,170.542740 60.616482,174.066269 
	C68.205017,177.969391 76.391953,178.732224 84.905212,179.595932 
z"/>
<path fill="#3ABBCE" opacity="1.000000" stroke="none" 
	d="
M104.151482,5.459308 
	C103.724304,4.634422 103.499115,4.142510 103.147697,3.410878 
	C118.021774,2.713032 130.807297,8.282511 142.270203,17.522493 
	C143.126160,18.212465 144.279129,18.533953 145.815125,19.266546 
	C146.561615,19.694155 146.807144,19.850365 147.072769,19.974983 
	C147.072769,19.974983 147.008453,19.986877 147.160187,20.157742 
	C147.568848,20.542917 147.825775,20.757229 148.082718,20.971539 
	C148.422577,21.007414 148.686035,21.168352 149.100372,21.884851 
	C149.588089,22.534628 149.848526,22.753908 150.108963,22.973186 
	C150.108963,22.973185 150.034012,22.971083 150.141785,23.200634 
	C150.511658,23.939907 150.773773,24.449633 150.697571,24.969643 
	C149.907990,24.987495 149.456757,24.995064 148.774109,24.814657 
	C147.986191,24.428940 147.429672,24.231195 146.873169,24.033453 
	C146.305450,23.917929 145.737717,23.802402 144.914810,23.197308 
	C144.406067,22.472530 144.152496,22.237326 143.898941,22.002121 
	C143.898941,22.002121 143.998810,22.000326 143.831696,21.849571 
	C143.390961,21.485844 143.117340,21.272873 142.843719,21.059900 
	C131.006241,13.468306 118.297478,8.073235 104.151482,5.459308 
z"/>
<path fill="#3EBED5" opacity="1.000000" stroke="none" 
	d="
M109.419014,181.905640 
	C107.561905,181.215866 106.101830,180.594559 104.258545,179.960602 
	C113.780144,176.362793 123.668526,172.730606 133.612640,169.258072 
	C134.729752,168.867966 136.162308,169.381287 137.634460,169.048904 
	C137.820343,168.622131 137.752457,168.563461 137.752457,168.563461 
	C136.632355,170.109543 135.836136,172.470413 134.338165,173.065872 
	C126.260178,176.276917 118.008087,179.049942 109.419014,181.905640 
z"/>
<path fill="#35BFD3" opacity="1.000000" stroke="none" 
	d="
M34.091789,22.195154 
	C43.180882,16.659729 51.357567,9.189947 62.393761,7.782488 
	C62.653934,8.341373 62.914104,8.900259 63.174278,9.459144 
	C61.316975,10.287791 59.481506,11.170120 57.598652,11.935956 
	C48.616955,15.589191 40.575436,20.651667 33.763981,27.610092 
	C33.227299,28.158354 32.380371,28.402924 31.216621,28.630222 
	C30.484608,27.621162 30.213606,26.770515 29.942602,25.919867 
	C29.942602,25.919867 29.972754,25.982592 30.146029,25.835609 
	C30.548264,25.428900 30.777224,25.169168 31.006184,24.909439 
	C31.006186,24.909441 31.006355,25.006563 31.163694,24.848392 
	C31.548975,24.431007 31.776917,24.171795 32.004860,23.912582 
	C32.004860,23.912584 32.004372,24.004902 32.163601,23.851055 
	C32.547916,23.441364 32.773006,23.185522 32.998093,22.929680 
	C32.998093,22.929680 32.992542,22.996813 33.172657,22.888554 
	C33.630363,22.624725 33.876701,22.429678 34.091789,22.195154 
z"/>
<path fill="#2FB6CE" opacity="1.000000" stroke="none" 
	d="
M2.205531,108.361557 
	C2.994878,109.000656 3.841107,110.034180 4.818295,111.227654 
	C4.885008,109.720360 4.951894,108.209167 5.025981,106.309647 
	C7.700412,114.466064 10.197916,123.069687 13.130861,131.522217 
	C14.101449,134.319366 16.193792,136.727295 17.614285,139.773224 
	C16.606756,140.510086 15.758196,140.786896 14.909634,141.063690 
	C14.909631,141.063690 14.972955,141.039581 14.854739,140.878372 
	C14.571732,140.461594 14.377954,140.230331 14.155192,140.023346 
	C7.995014,130.436127 4.434334,119.860176 2.205531,108.361557 
z"/>
<path fill="#2DBBD3" opacity="1.000000" stroke="none" 
	d="
M162.027634,150.104111 
	C162.027634,150.104111 161.958908,150.521851 161.715012,150.891357 
	C161.280121,151.511154 161.125153,151.782074 161.006210,152.073578 
	C161.006210,152.073578 160.998795,152.001495 160.825775,152.149200 
	C160.433731,152.560364 160.214706,152.823807 159.995667,153.087265 
	C159.995667,153.087265 159.994370,152.995041 159.829926,153.146637 
	C159.441727,153.561127 159.217972,153.824020 158.994217,154.086899 
	C158.994217,154.086899 158.993866,153.994019 158.829712,154.145874 
	C158.441544,154.560333 158.217545,154.822937 157.993561,155.085541 
	C157.993561,155.085541 157.992798,154.993118 157.829391,155.145889 
	C157.441589,155.560684 157.217178,155.822708 156.992767,156.084717 
	C156.992767,156.084717 156.992569,155.992523 156.828812,156.145508 
	C156.441132,156.560989 156.217209,156.823486 155.993286,157.085983 
	C155.993286,157.085983 155.992950,156.992874 155.829407,157.145905 
	C155.441727,157.561844 155.217606,157.824738 154.993500,158.087631 
	C154.993500,158.087631 154.993042,157.993225 154.830078,158.146606 
	C154.442612,158.563080 154.218109,158.826172 153.993591,159.089264 
	C153.993591,159.089249 153.992981,158.993286 153.830841,159.147034 
	C153.443665,159.563873 153.218643,159.826965 152.993622,160.090073 
	C152.993622,160.090073 152.993088,159.993439 152.831894,160.146683 
	C152.445724,160.561615 152.220734,160.823288 151.995758,161.084961 
	C151.995758,161.084976 151.996414,160.994019 151.825256,161.153595 
	C151.437775,161.597412 151.221451,161.881638 151.005127,162.165848 
	C149.415573,162.485855 147.826019,162.805862 146.236481,163.125870 
	C146.056152,162.757996 145.875824,162.390121 145.695496,162.022247 
	C150.419510,157.559860 155.143524,153.097473 160.271591,148.382797 
	C161.116241,148.416870 161.556824,148.703247 161.999603,149.268372 
	C162.010406,149.732788 162.019012,149.918442 162.027634,150.104111 
z"/>
<path fill="#37B4C9" opacity="1.000000" stroke="none" 
	d="
M149.005508,25.002632 
	C149.456757,24.995064 149.907990,24.987495 151.038239,24.978556 
	C152.172943,24.978918 152.628616,24.980652 153.084305,24.982388 
	C155.969711,28.401836 158.855103,31.821283 161.881653,35.561371 
	C161.755402,36.444057 161.488007,37.006104 161.088043,37.849884 
	C157.719040,35.001141 154.482651,31.870665 150.959549,28.217516 
	C150.421799,27.463894 150.170731,27.232944 149.919678,27.001995 
	C149.919678,27.001993 149.998718,27.001684 149.838486,26.842190 
	C149.425064,26.456219 149.171875,26.229742 148.918686,26.003265 
	C148.918686,26.003265 148.982758,26.009016 148.983322,25.771973 
	C148.991104,25.357498 148.998306,25.180065 149.005508,25.002632 
z"/>
<path fill="#38B9CF" opacity="1.000000" stroke="none" 
	d="
M15.055429,141.380219 
	C15.758196,140.786896 16.606756,140.510086 17.758076,140.088318 
	C20.713196,143.703964 23.365555,147.464569 26.072742,151.583008 
	C25.561098,152.221954 24.994625,152.503052 24.143795,152.922455 
	C20.973366,149.272751 18.087294,145.484726 15.055429,141.380219 
z"/>
<path fill="#33BDD2" opacity="1.000000" stroke="none" 
	d="
M161.997421,148.989609 
	C161.556824,148.703247 161.116241,148.416870 160.417282,148.066193 
	C162.477829,144.530899 164.747330,141.024612 167.173676,137.630463 
	C167.503693,137.168823 168.833740,136.917358 169.307678,137.208496 
	C169.761551,137.487305 170.058777,138.761749 169.805679,139.315689 
	C168.952209,141.183548 167.823227,142.925522 166.262680,145.079910 
	C165.494247,145.991470 165.262741,146.538773 165.031235,147.086060 
	C165.031235,147.086060 165.021088,147.006195 164.848724,147.152679 
	C164.450180,147.560486 164.223984,147.821823 163.997787,148.083160 
	C163.997787,148.083160 163.997650,147.998657 163.830841,148.152069 
	C163.442047,148.569016 163.220062,148.832520 162.998062,149.096024 
	C162.998062,149.096024 163.012482,149.028442 162.775146,149.016907 
	C162.357697,149.000122 162.177551,148.994873 161.997421,148.989609 
z"/>
<path fill="#3BBDCF" opacity="1.000000" stroke="none" 
	d="
M134.910553,61.650795 
	C132.323532,61.016823 129.608963,60.059872 125.983452,58.781788 
	C125.983452,63.411011 125.983452,67.743629 125.706566,72.551132 
	C125.245209,73.033630 125.060730,73.041222 124.876259,73.048805 
	C124.876259,67.085335 124.876259,61.121868 124.876259,54.336330 
	C128.946854,57.209068 131.864929,59.268440 134.910553,61.650795 
z"/>
<path fill="#4DBDD4" opacity="1.000000" stroke="none" 
	d="
M29.632938,26.049759 
	C30.213606,26.770515 30.484608,27.621162 30.902836,28.773981 
	C28.009403,31.786049 24.968744,34.495945 21.928087,37.205845 
	C21.729959,31.538395 26.792652,29.761335 29.632938,26.049759 
z"/>
<path fill="#3AB7CD" opacity="1.000000" stroke="none" 
	d="
M110.385857,44.850403 
	C110.294144,36.634701 110.294144,36.634701 100.632278,37.192974 
	C100.895966,36.509781 101.561127,35.168556 102.313889,35.117451 
	C105.738495,34.884956 109.187752,35.015549 113.211754,35.015549 
	C112.297737,38.543594 111.506126,41.599186 110.385857,44.850403 
z"/>
<path fill="#3ABCD3" opacity="1.000000" stroke="none" 
	d="
M125.882355,111.965187 
	C125.882355,116.396736 125.882355,120.828278 125.882355,125.783478 
	C127.704010,125.502312 129.052048,125.294258 130.745621,125.078796 
	C129.366409,126.675972 127.641647,128.280533 125.011917,130.727005 
	C125.011917,123.717949 125.011917,118.307343 125.264656,112.433022 
	C125.517395,111.969307 125.882355,111.965187 125.882355,111.965187 
z"/>
<path fill="#3CB4CA" opacity="1.000000" stroke="none" 
	d="
M69.715714,136.018158 
	C70.104134,142.042191 70.104134,142.042191 79.581345,141.989227 
	C76.232040,142.493225 72.427818,142.968445 67.669724,143.562820 
	C68.391518,140.473114 68.885490,138.358597 69.715714,136.018158 
z"/>
<path fill="#45B5C6" opacity="1.000000" stroke="none" 
	d="
M54.916359,59.622093 
	C52.767235,59.973949 50.696423,59.983810 48.274830,59.975395 
	C49.252342,58.843822 50.516514,57.638363 51.933521,56.652603 
	C52.753792,56.081966 53.820194,55.865143 54.775829,55.489098 
	C54.848778,56.752766 54.921722,58.016434 54.916359,59.622093 
z"/>
<path fill="#3CB4CA" opacity="1.000000" stroke="none" 
	d="
M76.710144,113.020477 
	C75.952515,116.810791 74.865929,120.814690 73.475357,125.008842 
	C74.241310,121.210747 75.311249,117.222412 76.710144,113.020477 
z"/>
<path fill="#43B9D1" opacity="1.000000" stroke="none" 
	d="
M149.369904,113.035309 
	C151.163925,111.391510 153.312378,109.702316 155.841003,107.985611 
	C154.055573,109.635368 151.889954,111.312645 149.369904,113.035309 
z"/>
<path fill="#44BECF" opacity="1.000000" stroke="none" 
	d="
M131.076248,79.346596 
	C132.918945,80.145668 134.890396,81.262589 136.922119,82.726929 
	C135.056580,81.937721 133.130798,80.801086 131.076248,79.346596 
z"/>
<path fill="#3CB4CA" opacity="1.000000" stroke="none" 
	d="
M87.626106,78.044502 
	C87.201538,80.448448 86.446396,83.024887 85.431976,85.844528 
	C85.880310,83.464142 86.587929,80.840569 87.626106,78.044502 
z"/>
<path fill="#3CB4CA" opacity="1.000000" stroke="none" 
	d="
M83.639084,90.107834 
	C83.580566,91.866806 83.189262,93.800049 82.489555,95.931702 
	C82.556198,94.180779 82.931244,92.231438 83.639084,90.107834 
z"/>
<path fill="#44BFD3" opacity="1.000000" stroke="none" 
	d="
M16.155659,103.224159 
	C17.720221,103.705925 19.283737,104.544365 20.915520,105.730240 
	C19.374060,105.245399 17.764336,104.413124 16.155659,103.224159 
z"/>
<path fill="#3CB4CA" opacity="1.000000" stroke="none" 
	d="
M82.223526,135.929764 
	C82.397293,133.948029 82.881744,131.724915 83.598915,129.216034 
	C83.399162,131.182953 82.966690,133.435684 82.223526,135.929764 
z"/>
<path fill="#3AB7CD" opacity="1.000000" stroke="none" 
	d="
M98.719910,41.002495 
	C98.517769,43.020897 97.986763,45.258236 97.189682,47.757988 
	C97.412750,45.754070 97.901894,43.487751 98.719910,41.002495 
z"/>
<path fill="#3AB7CD" opacity="1.000000" stroke="none" 
	d="
M94.657143,54.130848 
	C94.547974,55.830559 94.121178,57.724762 93.431816,59.880226 
	C93.559341,58.202774 93.949425,56.264057 94.657143,54.130848 
z"/>
<path fill="#43B9D1" opacity="1.000000" stroke="none" 
	d="
M162.350677,104.024658 
	C163.122635,103.045387 164.229614,102.026009 165.695480,101.005920 
	C164.931473,101.998329 163.808594,102.991440 162.350677,104.024658 
z"/>
<path fill="#45B5C6" opacity="1.000000" stroke="none" 
	d="
M47.634087,59.947063 
	C46.813011,60.925262 45.649727,61.936920 44.123817,62.998268 
	C44.938087,62.025478 46.114979,61.002998 47.634087,59.947063 
z"/>
<path fill="#3AB7CD" opacity="1.000000" stroke="none" 
	d="
M91.634026,64.082092 
	C91.563148,65.489273 91.176163,67.069366 90.477203,68.807182 
	C90.549469,67.394936 90.933693,65.824974 91.634026,64.082092 
z"/>
<path fill="#48BDD1" opacity="1.000000" stroke="none" 
	d="
M133.640564,103.958893 
	C132.808502,104.936783 131.635025,105.956802 130.091446,107.017639 
	C130.913956,106.039314 132.106567,105.020172 133.640564,103.958893 
z"/>
<path fill="#2DBBD3" opacity="1.000000" stroke="none" 
	d="
M142.077850,167.068008 
	C140.877029,167.689102 139.676208,168.310196 138.113922,168.747375 
	C137.752457,168.563461 137.820343,168.622131 137.831818,168.649658 
	C138.842453,168.019226 139.841629,167.361282 141.274323,166.697083 
	C141.831192,166.816544 141.954514,166.942276 142.077850,167.068008 
z"/>
<path fill="#43B9D1" opacity="1.000000" stroke="none" 
	d="
M139.341370,120.037247 
	C139.798721,119.391426 140.586121,118.705009 141.717468,118.022171 
	C141.264755,118.682724 140.468094,119.339691 139.341370,120.037247 
z"/>
<path fill="#44BACF" opacity="1.000000" stroke="none" 
	d="
M164.933594,82.672142 
	C164.104218,82.510536 163.156036,82.042473 162.110992,81.251877 
	C162.947708,81.408127 163.881241,81.886902 164.933594,82.672142 
z"/>
<path fill="#44BFD3" opacity="1.000000" stroke="none" 
	d="
M38.038555,118.349564 
	C38.879280,118.500504 39.835518,118.963600 40.888744,119.752899 
	C40.041843,119.606628 39.097954,119.134171 38.038555,118.349564 
z"/>
<path fill="#43B9D1" opacity="1.000000" stroke="none" 
	d="
M142.341675,118.027664 
	C142.794464,117.379265 143.574936,116.689941 144.701538,116.011322 
	C144.254898,116.676941 143.462128,117.331848 142.341675,118.027664 
z"/>
<path fill="#44BFD3" opacity="1.000000" stroke="none" 
	d="
M35.051369,116.345901 
	C35.889816,116.502083 36.840378,116.968575 37.885841,117.760513 
	C37.041656,117.609383 36.102570,117.132797 35.051369,116.345901 
z"/>
<path fill="#44BECF" opacity="1.000000" stroke="none" 
	d="
M141.036148,86.349228 
	C141.880646,86.498703 142.841446,86.959061 143.896729,87.745483 
	C143.044952,87.601067 142.098694,87.130592 141.036148,86.349228 
z"/>
<path fill="#44BECF" opacity="1.000000" stroke="none" 
	d="
M20.651661,78.970261 
	C20.148668,79.627701 19.307169,80.329590 18.098902,81.046356 
	C18.592474,80.379059 19.452814,79.696884 20.651661,78.970261 
z"/>
<path fill="#44BECF" opacity="1.000000" stroke="none" 
	d="
M144.054077,88.332329 
	C144.890182,88.489304 145.844727,88.956146 146.892517,89.747971 
	C146.048035,89.596039 145.110275,89.119118 144.054077,88.332329 
z"/>
<path fill="#44BECF" opacity="1.000000" stroke="none" 
	d="
M148.033722,91.294998 
	C148.442413,91.635178 148.934494,92.247147 149.168976,92.922775 
	C148.646622,92.513214 148.381851,92.039993 148.033722,91.294998 
z"/>
<path fill="#44BECF" opacity="1.000000" stroke="none" 
	d="
M147.667084,93.980850 
	C147.263077,94.600243 146.534332,95.263039 145.481415,95.956833 
	C145.885605,95.333305 146.613968,94.678780 147.667084,93.980850 
z"/>
<path fill="#48BDD1" opacity="1.000000" stroke="none" 
	d="
M137.654938,100.954666 
	C137.200760,101.613098 136.415359,102.308159 135.285675,102.986145 
	C135.735504,102.309807 136.529617,101.650543 137.654938,100.954666 
z"/>
<path fill="#43B9D1" opacity="1.000000" stroke="none" 
	d="
M159.259293,106.102516 
	C159.739670,105.472794 160.548676,104.750412 161.708740,104.025696 
	C161.235840,104.685524 160.411880,105.347694 159.259293,106.102516 
z"/>
<path fill="#43B9D1" opacity="1.000000" stroke="none" 
	d="
M136.216003,121.904434 
	C136.719666,121.228455 137.562363,120.622620 138.737427,120.021469 
	C138.231552,120.675629 137.393280,121.325111 136.216003,121.904434 
z"/>
<path fill="#44BFD3" opacity="1.000000" stroke="none" 
	d="
M47.911201,125.248001 
	C48.749435,125.432793 49.760990,125.917870 50.882263,126.736526 
	C50.022827,126.562851 49.053673,126.055573 47.911201,125.248001 
z"/>
<path fill="#44BFD3" opacity="1.000000" stroke="none" 
	d="
M27.896250,111.246185 
	C28.736343,111.430908 29.748625,111.920326 30.874554,112.743553 
	C30.014944,112.568527 29.041691,112.059708 27.896250,111.246185 
z"/>
<path fill="#44BFD3" opacity="1.000000" stroke="none" 
	d="
M31.053204,113.337723 
	C31.879683,113.500557 32.830429,113.968460 33.880917,114.761665 
	C33.046261,114.605576 32.111866,114.124176 31.053204,113.337723 
z"/>
<path fill="#43B9D1" opacity="1.000000" stroke="none" 
	d="
M146.339050,115.034004 
	C146.801498,114.386292 147.593933,113.703629 148.731125,113.024139 
	C148.273590,113.684563 147.471313,114.341812 146.339050,115.034004 
z"/>
<path fill="#44BECF" opacity="1.000000" stroke="none" 
	d="
M124.935349,73.413200 
	C125.060730,73.041222 125.245209,73.033630 125.706253,73.016342 
	C126.302727,73.809418 126.622612,74.612190 126.964439,75.739426 
	C126.322395,75.301796 125.658417,74.539696 124.935349,73.413200 
z"/>
<path fill="#3BBDCF" opacity="1.000000" stroke="none" 
	d="
M139.060364,64.752838 
	C138.227524,64.567879 137.231384,64.078728 136.124496,63.259136 
	C136.974854,63.435341 137.935959,63.941994 139.060364,64.752838 
z"/>
<path fill="#44BECF" opacity="1.000000" stroke="none" 
	d="
M30.658401,71.960861 
	C30.198372,72.597557 29.410742,73.285141 28.280403,73.972137 
	C28.735395,73.318283 29.533098,72.665016 30.658401,71.960861 
z"/>
<path fill="#44BACF" opacity="1.000000" stroke="none" 
	d="
M151.957886,73.663368 
	C151.118729,73.504791 150.168121,73.034035 149.111053,72.243439 
	C149.951874,72.399467 150.899155,72.875320 151.957886,73.663368 
z"/>
<path fill="#44BECF" opacity="1.000000" stroke="none" 
	d="
M27.661795,73.980255 
	C27.195028,74.605911 26.405169,75.281631 25.272423,75.964722 
	C25.732592,75.324829 26.535648,74.677574 27.661795,73.980255 
z"/>
<path fill="#44BACF" opacity="1.000000" stroke="none" 
	d="
M154.947403,75.663132 
	C154.112183,75.505203 153.157578,75.039421 152.106812,74.248322 
	C152.949768,74.400429 153.888885,74.877846 154.947403,75.663132 
z"/>
<path fill="#48BDD1" opacity="1.000000" stroke="none" 
	d="
M125.979156,111.656456 
	C125.882355,111.965187 125.517395,111.969307 125.334900,111.967819 
	C125.527771,110.991707 125.903137,110.017067 126.636246,108.987396 
	C126.687981,109.737480 126.381966,110.542603 125.979156,111.656456 
z"/>
<path fill="#48BDD1" opacity="1.000000" stroke="none" 
	d="
M140.463379,99.990402 
	C140.050537,100.333099 139.307434,100.670670 138.245544,100.986450 
	C138.662201,100.638199 139.397644,100.311729 140.463379,99.990402 
z"/>
<path fill="#3AB7CD" opacity="1.000000" stroke="none" 
	d="
M92.725548,60.967728 
	C92.823105,61.683163 92.603760,62.590618 92.146942,63.760559 
	C92.075851,63.068611 92.242256,62.114182 92.725548,60.967728 
z"/>
<path fill="#48B7CC" opacity="1.000000" stroke="none" 
	d="
M148.774109,24.814657 
	C148.998306,25.180065 148.991104,25.357498 148.969208,25.800879 
	C148.339218,25.573544 147.723877,25.080261 146.990845,24.310217 
	C147.429672,24.231195 147.986191,24.428940 148.774109,24.814657 
z"/>
<path fill="#44BACF" opacity="1.000000" stroke="none" 
	d="
M147.878265,70.680984 
	C147.187759,70.792419 146.338730,70.599625 145.269638,70.156181 
	C145.939636,70.062614 146.829666,70.219688 147.878265,70.680984 
z"/>
<path fill="#2DBBD3" opacity="1.000000" stroke="none" 
	d="
M141.525497,166.499664 
	C141.908173,165.816223 142.473206,165.323929 143.038239,164.831635 
	C143.253708,164.998154 143.469177,165.164688 143.684647,165.331207 
	C143.338516,165.836548 142.992371,166.341873 142.362045,166.957611 
	C141.954514,166.942276 141.831192,166.816544 141.525497,166.499664 
z"/>
<path fill="#3CB4CA" opacity="1.000000" stroke="none" 
	d="
M84.711060,87.021164 
	C84.813652,87.726212 84.606842,88.619598 84.162155,89.767723 
	C84.083405,89.084801 84.242523,88.147156 84.711060,87.021164 
z"/>
<path fill="#3AB7CD" opacity="1.000000" stroke="none" 
	d="
M95.651489,51.089859 
	C95.772400,51.793530 95.577675,52.656254 95.157990,53.771866 
	C95.067307,53.099468 95.201584,52.174194 95.651489,51.089859 
z"/>
<path fill="#3CB4CA" opacity="1.000000" stroke="none" 
	d="
M71.747513,128.985016 
	C71.891113,129.702377 71.713959,130.627960 71.346985,131.858658 
	C71.247032,131.173584 71.336906,130.183411 71.747513,128.985016 
z"/>
<path fill="#3CB4CA" opacity="1.000000" stroke="none" 
	d="
M78.680252,107.043106 
	C78.788086,107.748535 78.583214,108.631210 78.147293,109.770584 
	C78.066673,109.091637 78.217102,108.155991 78.680252,107.043106 
z"/>
<path fill="#44BFD3" opacity="1.000000" stroke="none" 
	d="
M51.055115,127.320862 
	C51.636280,127.421936 52.338585,127.825768 53.196365,128.513397 
	C52.626640,128.405991 51.901443,128.014816 51.055115,127.320862 
z"/>
<path fill="#3AB7CD" opacity="1.000000" stroke="none" 
	d="
M96.657677,48.094975 
	C96.775055,48.794254 96.582054,49.659386 96.157097,50.772789 
	C96.065857,50.100983 96.206573,49.180904 96.657677,48.094975 
z"/>
<path fill="#3CB4CA" opacity="1.000000" stroke="none" 
	d="
M70.750961,132.962738 
	C70.888039,133.394653 70.731155,134.027481 70.380096,134.929993 
	C70.276291,134.521011 70.366653,133.842316 70.750961,132.962738 
z"/>
<path fill="#44BECF" opacity="1.000000" stroke="none" 
	d="
M33.782471,70.095978 
	C33.579155,70.425346 33.053356,70.686623 32.231590,70.961510 
	C32.443741,70.659370 32.951862,70.343628 33.782471,70.095978 
z"/>
<path fill="#3CB4CA" opacity="1.000000" stroke="none" 
	d="
M77.672943,110.070259 
	C77.827164,110.500755 77.682686,111.082397 77.359344,111.913795 
	C77.245064,111.516174 77.309654,110.868782 77.672943,110.070259 
z"/>
<path fill="#3CB4CA" opacity="1.000000" stroke="none" 
	d="
M72.733315,125.961349 
	C72.889114,126.410767 72.737511,127.054680 72.389816,127.972733 
	C72.271126,127.549850 72.348526,126.852852 72.733315,125.961349 
z"/>
<path fill="#4DBCCE" opacity="1.000000" stroke="none" 
	d="
M165.327606,146.962799 
	C165.262741,146.538773 165.494247,145.991470 165.939819,145.232285 
	C165.977249,145.626770 165.800613,146.233154 165.327606,146.962799 
z"/>
<path fill="#43B9D1" opacity="1.000000" stroke="none" 
	d="
M166.300018,100.941910 
	C166.004791,100.566536 166.002014,100.086517 166.018646,99.246841 
	C166.222870,99.537216 166.407669,100.187233 166.300018,100.941910 
z"/>
<path fill="#3CB4CA" opacity="1.000000" stroke="none" 
	d="
M81.277405,139.004913 
	C81.129692,138.573425 81.279243,137.961227 81.610420,137.084869 
	C81.719582,137.488525 81.647133,138.156372 81.277405,139.004913 
z"/>
<path fill="#3AB7CD" opacity="1.000000" stroke="none" 
	d="
M99.748672,37.995392 
	C99.883476,38.424786 99.718483,39.027416 99.369171,39.888977 
	C99.272865,39.488144 99.360870,38.828388 99.748672,37.995392 
z"/>
<path fill="#44BECF" opacity="1.000000" stroke="none" 
	d="
M139.043671,85.323730 
	C139.489410,85.219910 140.056732,85.415939 140.818054,85.847679 
	C140.396454,85.930122 139.780869,85.776855 139.043671,85.323730 
z"/>
<path fill="#44BACF" opacity="1.000000" stroke="none" 
	d="
M165.972076,84.663879 
	C165.650909,84.497345 165.343552,84.014900 165.027985,83.239639 
	C165.341812,83.413872 165.663849,83.880913 165.972076,84.663879 
z"/>
<path fill="#3CB4CA" opacity="1.000000" stroke="none" 
	d="
M80.318123,141.902817 
	C80.167488,141.471146 80.318474,140.903671 80.650078,140.094177 
	C80.760384,140.490448 80.690063,141.128738 80.318123,141.902817 
z"/>
<path fill="#44BECF" opacity="1.000000" stroke="none" 
	d="
M128.074020,77.306274 
	C128.508713,77.212135 129.067459,77.411179 129.818497,77.846619 
	C129.406555,77.921837 128.802307,77.760658 128.074020,77.306274 
z"/>
<path fill="#44BFD3" opacity="1.000000" stroke="none" 
	d="
M42.044792,121.305748 
	C42.262177,121.165596 42.588245,121.316193 43.112427,121.657867 
	C42.924850,121.764801 42.539162,121.680649 42.044792,121.305748 
z"/>
<path fill="#44BFD3" opacity="1.000000" stroke="none" 
	d="
M46.063984,124.303734 
	C46.281502,124.159225 46.607311,124.300758 47.124443,124.637230 
	C46.934597,124.751373 46.553436,124.670578 46.063984,124.303734 
z"/>
<path fill="#48BDD1" opacity="1.000000" stroke="none" 
	d="
M134.729523,103.006485 
	C134.794006,103.213799 134.590683,103.490318 134.153442,103.882965 
	C134.100266,103.691292 134.281006,103.383484 134.729523,103.006485 
z"/>
<path fill="#44BFD3" opacity="1.000000" stroke="none" 
	d="
M45.000156,123.270569 
	C45.203171,123.201653 45.479492,123.395821 45.873714,123.817772 
	C45.685566,123.874924 45.379517,123.704285 45.000156,123.270569 
z"/>
<path fill="#44BFD3" opacity="1.000000" stroke="none" 
	d="
M43.874695,122.231552 
	C44.051418,122.178192 44.367153,122.387115 44.842636,122.831978 
	C44.672821,122.876556 44.343262,122.685188 43.874695,122.231552 
z"/>
<path fill="#4DBCCE" opacity="1.000000" stroke="none" 
	d="
M151.268036,162.056641 
	C151.221451,161.881638 151.437775,161.597412 151.870728,161.153824 
	C151.901886,161.312119 151.716415,161.629776 151.268036,162.056641 
z"/>
<path fill="#4DBCCE" opacity="1.000000" stroke="none" 
	d="
M161.999603,149.268372 
	C162.177551,148.994873 162.357697,149.000122 162.808105,149.027313 
	C162.894608,149.339798 162.710831,149.630356 162.277344,150.012512 
	C162.019012,149.918442 162.010406,149.732788 161.999603,149.268372 
z"/>
<path fill="#4DBCCE" opacity="1.000000" stroke="none" 
	d="
M152.262939,161.003540 
	C152.220734,160.823288 152.445724,160.561615 152.880219,160.146271 
	C152.903198,160.302444 152.716660,160.612274 152.262939,161.003540 
z"/>
<path fill="#44BFD3" opacity="1.000000" stroke="none" 
	d="
M55.292282,128.923553 
	C55.076397,128.666656 55.222023,128.391998 55.627666,128.000153 
	C55.723541,128.178268 55.645576,128.519196 55.292282,128.923553 
z"/>
<path fill="#44BFD3" opacity="1.000000" stroke="none" 
	d="
M53.920708,129.120911 
	C54.000179,128.900513 54.199070,128.892151 54.689590,128.947906 
	C54.667522,129.118988 54.353825,129.225967 53.920708,129.120911 
z"/>
<path fill="#4DBCCE" opacity="1.000000" stroke="none" 
	d="
M153.260773,160.006653 
	C153.218643,159.826965 153.443665,159.563873 153.878815,159.146576 
	C153.901932,159.302673 153.714920,159.612961 153.260773,160.006653 
z"/>
<path fill="#4DBCCE" opacity="1.000000" stroke="none" 
	d="
M154.260498,159.005951 
	C154.218109,158.826172 154.442612,158.563080 154.877274,158.146225 
	C154.900742,158.302521 154.714066,158.612579 154.260498,159.005951 
z"/>
<path fill="#4DBCCE" opacity="1.000000" stroke="none" 
	d="
M155.258698,158.002563 
	C155.217606,157.824738 155.441727,157.561844 155.875946,157.145599 
	C155.898666,157.300644 155.711288,157.609070 155.258698,158.002563 
z"/>
<path fill="#4DBCCE" opacity="1.000000" stroke="none" 
	d="
M156.257996,157.000824 
	C156.217209,156.823486 156.441132,156.560989 156.874893,156.145264 
	C156.897400,156.299896 156.710068,156.607773 156.257996,157.000824 
z"/>
<path fill="#4DBCCE" opacity="1.000000" stroke="none" 
	d="
M157.256149,155.997925 
	C157.217178,155.822708 157.441589,155.560684 157.875610,155.145340 
	C157.896652,155.298401 157.708084,155.604767 157.256149,155.997925 
z"/>
<path fill="#4DBCCE" opacity="1.000000" stroke="none" 
	d="
M158.259613,155.002487 
	C158.217545,154.822937 158.441544,154.560333 158.876144,154.145584 
	C158.899719,154.302094 158.712692,154.610764 158.259613,155.002487 
z"/>
<path fill="#4DBCCE" opacity="1.000000" stroke="none" 
	d="
M159.260223,154.003540 
	C159.217972,153.824020 159.441727,153.561127 159.876038,153.145889 
	C159.899796,153.302399 159.713013,153.611282 159.260223,154.003540 
z"/>
<path fill="#4DBCCE" opacity="1.000000" stroke="none" 
	d="
M164.260330,147.996170 
	C164.223984,147.821823 164.450180,147.560486 164.888687,147.147919 
	C164.908295,147.300827 164.715591,147.604996 164.260330,147.996170 
z"/>
<path fill="#4DBCCE" opacity="1.000000" stroke="none" 
	d="
M160.260651,153.004303 
	C160.214706,152.823807 160.433731,152.560364 160.861816,152.145493 
	C160.889114,152.303162 160.707367,152.612259 160.260651,153.004303 
z"/>
<path fill="#4DBCCE" opacity="1.000000" stroke="none" 
	d="
M163.268524,149.018219 
	C163.220062,148.832520 163.442047,148.569016 163.873077,148.151978 
	C163.901093,148.312439 163.720047,148.626434 163.268524,149.018219 
z"/>
<path fill="#4DBCCE" opacity="1.000000" stroke="none" 
	d="
M161.255814,151.970917 
	C161.125153,151.782074 161.280121,151.511154 161.627930,151.084290 
	C161.691635,151.227905 161.598526,151.548096 161.255814,151.970917 
z"/>
<path fill="#3BBDCF" opacity="1.000000" stroke="none" 
	d="
M140.844635,65.883987 
	C140.542221,66.018837 140.293793,65.803886 139.906494,65.374374 
	C140.123184,65.309387 140.500198,65.434181 140.844635,65.883987 
z"/>
<path fill="#44BACF" opacity="1.000000" stroke="none" 
	d="
M159.101013,78.785324 
	C158.918335,78.842216 158.602234,78.638000 158.141144,78.189659 
	C158.319962,78.138428 158.643768,78.331322 159.101013,78.785324 
z"/>
<path fill="#44BECF" opacity="1.000000" stroke="none" 
	d="
M129.995941,78.268150 
	C130.193771,78.204201 130.472198,78.403336 130.875122,78.829987 
	C130.691925,78.882080 130.384216,78.706657 129.995941,78.268150 
z"/>
<path fill="#44BECF" opacity="1.000000" stroke="none" 
	d="
M21.743004,78.024139 
	C21.795603,78.216156 21.587576,78.486679 21.151867,78.880356 
	C21.110249,78.703224 21.296314,78.402939 21.743004,78.024139 
z"/>
<path fill="#44BACF" opacity="1.000000" stroke="none" 
	d="
M157.958221,77.701431 
	C157.739731,77.845940 157.425583,77.699127 156.920456,77.367569 
	C157.107162,77.258591 157.484879,77.334343 157.958221,77.701431 
z"/>
<path fill="#44BECF" opacity="1.000000" stroke="none" 
	d="
M22.939232,77.146454 
	C22.966793,77.394409 22.698925,77.609215 22.188816,77.910065 
	C22.178984,77.701843 22.411394,77.407578 22.939232,77.146454 
z"/>
<path fill="#44BACF" opacity="1.000000" stroke="none" 
	d="
M156.095047,76.779358 
	C155.913895,76.832008 155.603317,76.621223 155.143707,76.169853 
	C155.318329,76.124817 155.641968,76.320374 156.095047,76.779358 
z"/>
<path fill="#44BECF" opacity="1.000000" stroke="none" 
	d="
M127.006660,76.257614 
	C127.207214,76.194313 127.481590,76.397461 127.881470,76.826691 
	C127.698151,76.876534 127.389313,76.700294 127.006660,76.257614 
z"/>
<path fill="#44BECF" opacity="1.000000" stroke="none" 
	d="
M24.731052,76.011620 
	C24.764791,76.204323 24.521601,76.483101 24.030376,76.895554 
	C24.006268,76.718719 24.230194,76.408203 24.731052,76.011620 
z"/>
<path fill="#44BACF" opacity="1.000000" stroke="none" 
	d="
M148.996399,71.744423 
	C148.801086,71.807487 148.523407,71.609085 148.120300,71.184937 
	C148.301270,71.133781 148.607651,71.308372 148.996399,71.744423 
z"/>
<path fill="#44BECF" opacity="1.000000" stroke="none" 
	d="
M31.732574,70.999298 
	C31.791281,71.201942 31.577223,71.472252 31.137844,71.874374 
	C31.094954,71.693115 31.277382,71.380043 31.732574,70.999298 
z"/>
<path fill="#44BACF" opacity="1.000000" stroke="none" 
	d="
M160.956757,79.706093 
	C160.747803,79.838905 160.438812,79.688675 159.939911,79.356255 
	C160.118927,79.257065 160.487823,79.340057 160.956757,79.706093 
z"/>
<path fill="#45B5C6" opacity="1.000000" stroke="none" 
	d="
M41.732567,64.012146 
	C41.773849,64.205582 41.550243,64.474617 41.086994,64.859238 
	C41.054127,64.679131 41.260902,64.383438 41.732567,64.012146 
z"/>
<path fill="#45B5C6" opacity="1.000000" stroke="none" 
	d="
M42.986633,63.124825 
	C43.014576,63.394444 42.733315,63.616234 42.193577,63.910580 
	C42.182541,63.681087 42.429985,63.379040 42.986633,63.124825 
z"/>
<path fill="#3BBDCF" opacity="1.000000" stroke="none" 
	d="
M135.993011,62.737556 
	C135.796234,62.801651 135.518204,62.607620 135.123398,62.184303 
	C135.308334,62.129818 135.610046,62.304626 135.993011,62.737556 
z"/>
<path fill="#48B7CC" opacity="1.000000" stroke="none" 
	d="
M143.985626,22.261942 
	C144.152496,22.237326 144.406067,22.472530 144.804413,22.922346 
	C144.656891,22.931892 144.364609,22.726830 143.985626,22.261942 
z"/>
<path fill="#4DBDD4" opacity="1.000000" stroke="none" 
	d="
M32.733147,23.007818 
	C32.773006,23.185522 32.547916,23.441364 32.117439,23.850910 
	C32.097435,23.698395 32.282818,23.392176 32.733147,23.007818 
z"/>
<path fill="#4DBDD4" opacity="1.000000" stroke="none" 
	d="
M31.739182,23.996952 
	C31.776917,24.171795 31.548975,24.431007 31.115135,24.848616 
	C31.097324,24.698448 31.285412,24.389885 31.739182,23.996952 
z"/>
<path fill="#48B7CC" opacity="1.000000" stroke="none" 
	d="
M150.007629,27.259480 
	C150.170731,27.232944 150.421799,27.463894 150.827652,27.898634 
	C150.686829,27.907272 150.391190,27.712118 150.007629,27.259480 
z"/>
<path fill="#48B7CC" opacity="1.000000" stroke="none" 
	d="
M149.007782,26.260937 
	C149.171875,26.229742 149.425064,26.456219 149.838593,26.881706 
	C149.698257,26.893345 149.397583,26.705975 149.007782,26.260937 
z"/>
<path fill="#4DBDD4" opacity="1.000000" stroke="none" 
	d="
M30.740248,24.995060 
	C30.777224,25.169168 30.548264,25.428900 30.113613,25.848263 
	C30.096718,25.698824 30.285515,25.389753 30.740248,24.995060 
z"/>
<path fill="#44BFD3" opacity="1.000000" stroke="none" 
	d="
M20.996372,106.262268 
	C21.196205,106.200867 21.469393,106.408043 21.872391,106.839592 
	C21.691378,106.886269 21.380552,106.708565 20.996372,106.262268 
z"/>
<path fill="#43B9D1" opacity="1.000000" stroke="none" 
	d="
M145.263321,115.980286 
	C145.201965,115.778450 145.403259,115.502930 145.837875,115.113205 
	C145.889450,115.301521 145.707703,115.604050 145.263321,115.980286 
z"/>
<path fill="#44BFD3" opacity="1.000000" stroke="none" 
	d="
M33.993027,115.268799 
	C34.193764,115.204781 34.471748,115.406013 34.872524,115.836594 
	C34.686970,115.888649 34.378624,115.711349 33.993027,115.268799 
z"/>
<path fill="#48B7CC" opacity="1.000000" stroke="none" 
	d="
M142.957916,21.310154 
	C143.117340,21.272873 143.390961,21.485844 143.832550,21.899502 
	C143.691055,21.920261 143.381592,21.740332 142.957916,21.310154 
z"/>
<path fill="#44BFD3" opacity="1.000000" stroke="none" 
	d="
M26.054724,110.295303 
	C26.261745,110.164848 26.576015,110.315582 27.084929,110.649231 
	C26.907038,110.746925 26.534504,110.661705 26.054724,110.295303 
z"/>
<path fill="#44BFD3" opacity="1.000000" stroke="none" 
	d="
M24.999023,109.273819 
	C25.209723,109.201157 25.489391,109.394630 25.880762,109.821304 
	C25.684307,109.882980 25.376150,109.711479 24.999023,109.273819 
z"/>
<path fill="#48BDD1" opacity="1.000000" stroke="none" 
	d="
M127.742416,108.014557 
	C127.802490,108.213562 127.599548,108.489342 127.165543,108.884262 
	C127.116119,108.699371 127.297760,108.395348 127.742416,108.014557 
z"/>
<path fill="#44BFD3" opacity="1.000000" stroke="none" 
	d="
M23.896759,108.224487 
	C24.076323,108.171310 24.385738,108.381493 24.848083,108.828476 
	C24.676212,108.872803 24.351410,108.680336 23.896759,108.224487 
z"/>
<path fill="#43B9D1" opacity="1.000000" stroke="none" 
	d="
M157.044952,107.852478 
	C157.027557,107.581245 157.335983,107.345131 157.923187,107.018631 
	C157.924911,107.248032 157.647842,107.567810 157.044952,107.852478 
z"/>
<path fill="#48BDD1" opacity="1.000000" stroke="none" 
	d="
M128.988739,107.123154 
	C129.015121,107.377823 128.731964,107.600800 128.193787,107.910995 
	C128.185562,107.695961 128.432373,107.393707 128.988739,107.123154 
z"/>
<path fill="#44BFD3" opacity="1.000000" stroke="none" 
	d="
M22.045975,107.289612 
	C22.250366,107.159317 22.565685,107.309158 23.077435,107.639923 
	C22.901545,107.737152 22.529222,107.653450 22.045975,107.289612 
z"/>
<path fill="#44BFD3" opacity="1.000000" stroke="none" 
	d="
M40.993240,120.266464 
	C41.197113,120.201622 41.471085,120.406189 41.870979,120.836929 
	C41.685715,120.887367 41.374527,120.711624 40.993240,120.266464 
z"/>
<path fill="#4DBDD4" opacity="1.000000" stroke="none" 
	d="
M33.818527,22.158363 
	C33.876701,22.429678 33.630363,22.624725 33.139648,22.881868 
	C33.132767,22.696154 33.339016,22.408863 33.818527,22.158363 
z"/>
<path fill="#44BECF" opacity="1.000000" stroke="none" 
	d="
M148.740845,93.001312 
	C148.799057,93.193344 148.596283,93.472656 148.165268,93.879623 
	C148.117966,93.701057 148.298904,93.394821 148.740845,93.001312 
z"/>
<path fill="#44BECF" opacity="1.000000" stroke="none" 
	d="
M147.001785,90.269142 
	C147.209503,90.198372 147.491074,90.392776 147.886490,90.821259 
	C147.692108,90.881668 147.383865,90.707993 147.001785,90.269142 
z"/>
<path fill="#44BECF" opacity="1.000000" stroke="none" 
	d="
M13.775031,84.920883 
	C13.887504,85.106689 13.711782,85.369072 13.326599,85.768997 
	C13.280493,85.630394 13.403725,85.327370 13.775031,84.920883 
z"/>
<path fill="#44BECF" opacity="1.000000" stroke="none" 
	d="
M137.998444,84.274399 
	C138.209503,84.207443 138.489090,84.411018 138.884491,84.850975 
	C138.689178,84.906540 138.378082,84.725723 137.998444,84.274399 
z"/>
<path fill="#44BECF" opacity="1.000000" stroke="none" 
	d="
M137.000519,83.263992 
	C137.203247,83.200638 137.480942,83.402908 137.877625,83.837250 
	C137.689575,83.889412 137.382507,83.709518 137.000519,83.263992 
z"/>
<path fill="#44BECF" opacity="1.000000" stroke="none" 
	d="
M14.698093,83.045731 
	C14.840650,83.258072 14.697579,83.577095 14.370456,84.090912 
	C14.261757,83.907944 14.337112,83.530182 14.698093,83.045731 
z"/>
<path fill="#44BECF" opacity="1.000000" stroke="none" 
	d="
M15.729172,81.997696 
	C15.796714,82.203743 15.596895,82.479607 15.167922,82.875168 
	C15.113115,82.685753 15.287462,82.376640 15.729172,81.997696 
z"/>
<path fill="#44BECF" opacity="1.000000" stroke="none" 
	d="
M16.965569,81.125122 
	C16.989250,81.376060 16.707664,81.590515 16.177969,81.896919 
	C16.173340,81.688789 16.416821,81.388725 16.965569,81.125122 
z"/>
<path fill="#44BACF" opacity="1.000000" stroke="none" 
	d="
M161.997269,80.730377 
	C161.786362,80.802986 161.500885,80.612244 161.110718,80.181076 
	C161.311569,80.116112 161.617142,80.291565 161.997269,80.730377 
z"/>
<path fill="#48B7CC" opacity="1.000000" stroke="none" 
	d="
M152.953857,24.676056 
	C152.628616,24.980652 152.172943,24.978918 151.376572,24.968271 
	C150.773773,24.449633 150.511658,23.939907 150.143509,23.163185 
	C150.966125,23.387363 151.894760,23.878544 152.953857,24.676056 
z"/>
<path fill="#48B7CC" opacity="1.000000" stroke="none" 
	d="
M146.990417,19.731121 
	C146.807144,19.850365 146.561615,19.694155 146.177185,19.356335 
	C146.314789,19.299965 146.611420,19.393612 146.990417,19.731121 
z"/>
<path fill="#48B7CC" opacity="1.000000" stroke="none" 
	d="
M147.991211,20.720711 
	C147.825775,20.757229 147.568848,20.542917 147.161942,20.125088 
	C147.307892,20.104340 147.603790,20.287111 147.991211,20.720711 
z"/>
<path fill="#48B7CC" opacity="1.000000" stroke="none" 
	d="
M150.008789,22.722630 
	C149.848526,22.753908 149.588089,22.534628 149.173859,22.111195 
	C149.316254,22.095385 149.612442,22.283730 150.008789,22.722630 
z"/>
<path fill="#3ABCD3" opacity="1.000000" stroke="none" 
	d="
M76.000122,182.306702 
	C76.113220,182.046692 76.312592,182.038513 76.811127,182.037598 
	C76.768982,182.216095 76.427681,182.387314 76.000122,182.306702 
z"/>
<path fill="#38B9CF" opacity="1.000000" stroke="none" 
	d="
M14.134155,140.285736 
	C14.377954,140.230331 14.571732,140.461594 14.853626,140.912231 
	C14.684859,140.920914 14.398989,140.734528 14.134155,140.285736 
z"/>
</svg>